<svg id="Layer_1" data-name="Layer 1" xmlns="http://www.w3.org/2000/svg" viewBox="0 0 4096 4096"><defs><style>.cls-1,.cls-2{fill:#fff;}.cls-2{stroke:#000;stroke-miterlimit:10;stroke-width:67px;}.cls-3{fill:#8bc34a;}.cls-4{fill:#ffeb3b;}.cls-5{fill:#ff5722;}.cls-6{fill:#1b5e20;}.cls-7{fill:#c8e6c9;}.cls-8{fill:none;}.cls-9{font-size:682px;font-family:BodoniSvtyTwoSCITCTT-Book, "Bodoni 72 Smallcaps";}</style></defs><rect class="cls-1" width="4096" height="4096"/><circle class="cls-2" cx="2073.77" cy="1611.06" r="1194.31"/><path class="cls-3" d="M3220.14,1611.05H2067.78L2644.12,612.8C2988.48,812.13,3220.14,1184.54,3220.14,1611.05Z"/><path class="cls-4" d="M2644.12,612.8l-576.34,998.25L1491.31,612.58c169.51-98,366.31-154.15,576.22-154.15S2474.52,514.62,2644.12,612.8Z"/><path class="cls-5" d="M2067.78,1611.05H914.9c0-426.67,231.84-799.2,576.41-998.47Z"/><circle class="cls-1" cx="2067.52" cy="1611.06" r="947.24"/><path class="cls-6" d="M1839.46,1911.94c-18-15.51-42-14.21-83.13-11.38-52.57,3.61-90.91,17.43-147.83,39.87-107.69,42.45-115,49.94-172.06,68-37.79,11.93-85.72,24.79-143.08,17.7-43.14-5.33-60.11-18-69.37-30.83-14.39-19.85-12.76-43.43-12.14-50.9,2.58-31.26,20.43-42.45,44.2-81.06,34.25-55.64,18.34-66.77,44.42-94.77,34.71-37.27,62.07-16.68,98.07-51,40.23-38.35,16.37-73.93,58.55-122,23-26.15,31.8-17.63,92.49-58.58,26.48-17.87,65.52-44.21,102.48-85.08,55-60.79,43.78-85.63,88.48-116.85,41.42-28.92,54.87-10.27,110.31-39.42,67.55-35.51,59.52-69.48,120.55-99.28,59-28.84,74.69-1,136.79-29.44,66-30.19,55.76-65,121.26-95.13,61.1-28.11,79.55-2.26,142-33.75,51.45-25.92,45.11-46.55,95.77-69.4,15.9-7.16,54.27-12.55,131-23.31,79.82-11.2,115-13.29,133.74-32.33,2.88-2.93,14.27-15.3,30.52-16.34.94-.06,15.33-.85,18,5.45,3.61,8.46-18.27,19.31-29.86,40.15-13.32,24-7,50.31-4.12,65.65,13.79,74.31-2.24,173.58-16.41,223.27-20.44,71.69-41.86,57.26-62.37,134.59-19.36,73-1.92,92-28.12,145-25.77,52-50.85,50.26-68.07,101.39-16.55,49.15,3.54,60-13.77,104-20.12,51.21-51.24,46.76-75.28,99.21-23.42,51.11,1.7,65-19.56,110.17-24.57,52.2-62.14,42.19-118.58,105.78-48.34,54.45-30.1,72.28-73.69,113.46-53.72,50.75-84.18,26.27-139.07,76-55.51,50.25-40.07,89.51-92.09,115.77-43.57,22-66.37.48-101.08,28.44-30.7,24.73-23.09,49.8-60.43,76.15-10.73,7.58-33.79,23.36-65.52,21.49-4.75-.28-39.55-2.88-63.42-31-11.07-13-18.16-29.62-21.32-59.57-8.13-76.79,20.13-141,28.33-158.67,31.38-67.55,50-58.42,76.58-116.52C1858.29,2041,1880.22,1947.09,1839.46,1911.94Z"/><polygon class="cls-7" points="1489.23 1907.76 1303.84 1955.54 1250.45 1962.1 1344.47 1935.93 1472.93 1898.98 1332.57 1821.59 1490.28 1891.88 1759.43 1821.89 1492.95 1622.61 1782.46 1813.67 1916.48 1792.16 1837.24 1670.88 1733.66 1379.28 1851.99 1659.05 1932.39 1779.04 2071.97 1621.33 2008.41 1464.38 1976.36 1248.09 2023.07 1465.57 2087.13 1613.8 2249.72 1437.05 2253.48 1294.56 2237.85 1118.66 2263.67 1277.8 2270.36 1423.45 2453.34 1219.28 2470.38 1137.29 2478.71 1018.4 2478.84 1136.96 2473.1 1206.06 2746.98 925.07 2468.38 1246.31 2642.77 1241.83 2701.07 1245.82 2642.06 1246.82 2510.5 1257.17 2464.61 1260.71 2455.82 1263.98 2291.87 1441.15 2361.78 1462.98 2606.31 1510.97 2356.09 1479.4 2279.96 1457.07 2152.07 1591.16 2354.98 1676.86 2519.88 1722.27 2350.67 1690.14 2138.08 1607.32 2008.53 1756.77 2304.17 1888.46 2425.27 1933.01 2299.25 1901.2 1997.55 1772.87 1952.02 1822.46 1953.2 1855.99 2029.82 1954.51 2139.97 2072.51 2241.44 2141.63 2132.08 2086.84 2018.28 1966.64 1943.16 1875.27 1911.82 1983.54 1888.1 2094.84 1975.66 2263.99 2009.71 2318.41 1969.22 2268.8 1882.86 2115.66 1825.12 2258.28 1808.26 2325.75 1840.56 2417.71 1801.16 2333.92 1766.67 2422.03 1793.41 2330.15 1811.62 2257.04 1868.37 2105.94 1926.23 1869.39 1910.99 1825.26 1845.91 1829.02 1683.69 1855.44 1505.65 1904.38 1489.23 1907.76"/><line class="cls-8" x1="3268.08" y1="1611.06" x2="3220.14" y2="1611.05"/><line class="cls-8" x1="2734.49" y1="456.29" x2="2644.12" y2="612.8"/><line class="cls-8" x1="1491.31" y1="612.58" x2="1401.08" y2="456.29"/><line class="cls-8" x1="914.9" y1="1611.05" x2="879.46" y2="1611.06"/><line class="cls-8" x1="2067.78" y1="1611.06" x2="1401.08" y2="2765.82"/><line class="cls-8" x1="2067.78" y1="1611.06" x2="2734.48" y2="2765.82"/><text class="cls-9" transform="translate(406.19 3363.23)">plantometer</text></svg>