<svg xmlns="http://www.w3.org/2000/svg" viewBox="0 0 1024 1024"><defs><style>.cls-1,.cls-5{fill:#fff;}.cls-1{stroke:#000;stroke-miterlimit:10;stroke-width:30px;}.cls-2{fill:#8bc34a;}.cls-3{fill:#ffeb3b;}.cls-4{fill:#ff5722;}.cls-6{fill:none;}.cls-7{fill:#1b5e20;}.cls-8{fill:#c8e6c9;}</style></defs><g id="Layer_1" data-name="Layer 1"><circle class="cls-1" cx="512.74" cy="512" r="448.16"/><path class="cls-2" d="M945.89,510.6H513.16L729.59,135.39C858.9,210.31,945.89,350.29,945.89,510.6Z"/><path class="cls-3" d="M729.59,135.39,513.16,510.6,296.69,135.31a433,433,0,0,1,432.9.08Z"/><path class="cls-4" d="M513.16,510.6H80.24c0-160.37,87.06-300.39,216.45-375.29Z"/><circle class="cls-5" cx="513.47" cy="510.6" r="356.03"/><line class="cls-6" x1="960.9" y1="512" x2="942.88" y2="512"/><line class="cls-6" x1="760.34" y1="77.97" x2="726.37" y2="136.79"/><line class="cls-6" x1="293.07" y1="136.71" x2="259.16" y2="77.97"/><line class="cls-6" x1="76.42" y1="512" x2="63.1" y2="512"/><line class="cls-6" x1="509.75" y1="512" x2="259.16" y2="946.03"/><line class="cls-6" x1="509.75" y1="512" x2="760.34" y2="946.03"/></g><g id="Layer_2" data-name="Layer 2"><path class="cls-7" d="M424.32,606.19,795.83,248.14,777.64,364.31S703,587.09,652.6,645.15c-51.06,58.87-201.34,212.12-264,165.76C347.44,780.42,424.32,606.19,424.32,606.19Z"/><polygon class="cls-8" points="465.11 582.95 426.7 783.38 499.2 550.09 528.7 521.67 641.86 639.09 545.28 505.68 579.38 472.82 712.68 476.49 598.74 454.17 777.78 265.53 465.28 566.71 465.11 582.95"/><path class="cls-7" d="M424.32,606.19,795.83,248.14,679.06,262S453.68,328.44,393.8,376.62C333.09,425.48,174.4,570,218.42,634.3,247.37,676.58,424.32,606.19,424.32,606.19Z"/><polygon class="cls-8" points="449.04 566.28 247.34 597.27 483.14 533.42 512.63 505 399.47 387.58 529.22 489.01 563.32 456.15 564.56 322.8 582.67 437.5 777.78 265.53 465.28 566.71 449.04 566.28"/></g></svg>