<svg xmlns="http://www.w3.org/2000/svg" viewBox="0 0 3563.05 3563.05"><defs><style>.cls-1,.cls-5{fill:#fff;}.cls-1{stroke:#000;stroke-miterlimit:10;stroke-width:67px;}.cls-2{fill:#8bc34a;}.cls-3{fill:#ffeb3b;}.cls-4{fill:#ff5722;}.cls-6{fill:#1b5e20;}.cls-7{fill:#c8e6c9;}.cls-8{fill:none;}</style></defs><g id="Layer_2" data-name="Layer 2"><g id="Layer_1-2" data-name="Layer 1"><circle class="cls-1" cx="1781.53" cy="1781.53" r="1748.03"/><path class="cls-2" d="M3459.39,1781.52H1772.76L2616.31,320.45C3120.32,612.19,3459.39,1157.26,3459.39,1781.52Z"/><path class="cls-3" d="M2616.31,320.45,1772.76,1781.52,929,320.13c248.1-143.5,536.14-225.62,843.36-225.62C2079.84,94.51,2368.08,176.75,2616.31,320.45Z"/><path class="cls-4" d="M1772.76,1781.52H85.38C85.38,1157,424.7,611.79,929,320.13Z"/><circle class="cls-5" cx="1772.38" cy="1781.53" r="1386.4"/><path class="cls-6" d="M1438.57,2221.91c-26.33-22.7-61.41-20.79-121.66-16.66-76.94,5.28-133.06,25.52-216.36,58.36-157.63,62.13-168.29,73.09-251.84,99.45-55.32,17.46-125.47,36.28-209.41,25.9-63.14-7.8-88-26.41-101.54-45.12-21-29.06-18.68-63.56-17.77-74.49,3.78-45.75,29.91-62.13,64.7-118.65,50.12-81.43,26.84-97.73,65-138.71,50.81-54.55,90.86-24.41,143.53-74.64,58.89-56.14,24-108.21,85.7-178.52,33.6-38.27,46.54-25.8,135.38-85.74,38.75-26.15,95.89-64.71,150-124.52,80.47-89,64.07-125.34,129.51-171,60.62-42.33,80.3-15,161.44-57.7,98.86-52,87.11-101.69,176.44-145.31,86.43-42.2,109.31-1.46,200.22-43.08,96.53-44.19,81.6-95.11,177.48-139.23,89.42-41.15,116.42-3.31,207.89-49.4,75.3-38,66-68.14,140.16-101.57,23.27-10.5,79.43-18.37,191.75-34.13,116.83-16.39,168.31-19.45,195.74-47.32,4.22-4.28,20.9-22.39,44.68-23.92,1.38-.08,22.44-1.24,26.38,8,5.28,12.38-26.75,28.26-43.7,58.77-19.5,35.09-10.21,73.63-6,96.08,20.18,108.76-3.28,254-24,326.78-29.92,104.93-61.27,83.81-91.29,197-28.33,106.83-2.81,134.68-41.17,212.17-37.7,76.16-74.42,73.56-99.62,148.39-24.22,71.94,5.18,87.79-20.16,152.29-29.44,74.94-75,68.43-110.17,145.2-34.28,74.8,2.48,95.13-28.64,161.24-36,76.4-90.94,61.75-173.55,154.82-70.75,79.7-44.06,105.79-107.85,166.06-78.63,74.29-123.21,38.46-203.55,111.19-81.24,73.55-58.65,131-134.78,169.44-63.78,32.19-97.14.7-148,41.62-44.94,36.2-33.8,72.89-88.44,111.46-15.71,11.09-49.46,34.19-95.91,31.45-7-.41-57.87-4.21-92.82-45.36-16.19-19.08-26.57-43.36-31.21-87.2-11.89-112.4,29.46-206.36,41.48-232.23,45.92-98.87,73.13-85.51,112.08-170.54C1466.13,2410.74,1498.25,2273.35,1438.57,2221.91Z"/><polygon class="cls-7" points="925.98 2215.8 654.63 2285.72 576.48 2295.32 714.11 2257.02 902.12 2202.93 696.68 2089.67 927.51 2192.55 1321.45 2090.11 931.41 1798.43 1355.15 2078.08 1551.31 2046.59 1435.33 1869.09 1283.72 1442.3 1456.93 1851.77 1574.59 2027.39 1778.88 1796.57 1685.87 1566.84 1638.94 1250.27 1707.31 1568.59 1801.08 1785.55 2039.04 1526.85 2044.56 1318.3 2021.68 1060.84 2059.47 1293.77 2069.26 1506.94 2337.07 1208.12 2362.01 1088.11 2374.21 914.1 2374.39 1087.62 2366 1188.76 2766.85 777.5 2359.08 1247.68 2614.33 1241.12 2699.65 1246.96 2613.29 1248.42 2420.74 1263.57 2353.56 1268.76 2340.7 1273.53 2100.74 1532.84 2203.06 1564.79 2560.97 1635.04 2194.74 1588.83 2083.31 1556.15 1896.13 1752.41 2193.11 1877.84 2434.47 1944.3 2186.8 1897.28 1875.65 1776.05 1686.03 1994.8 2118.75 2187.55 2295.98 2252.74 2111.54 2206.19 1669.96 2018.36 1603.33 2090.94 1605.06 2140.01 1717.2 2284.21 1878.42 2456.92 2026.92 2558.09 1866.87 2477.89 1700.3 2301.97 1590.35 2168.24 1544.48 2326.71 1509.77 2489.6 1637.92 2737.18 1687.76 2816.82 1628.5 2744.22 1502.11 2520.08 1417.6 2728.82 1392.92 2827.57 1440.19 2962.16 1382.53 2839.53 1332.05 2968.49 1371.18 2834.02 1397.84 2727.01 1480.9 2505.85 1565.58 2159.64 1543.27 2095.04 1448.02 2100.55 1210.59 2139.21 950.01 2210.85 925.98 2215.8"/><line class="cls-8" x1="3529.55" y1="1781.53" x2="3459.39" y2="1781.52"/><line class="cls-8" x1="2748.57" y1="91.38" x2="2616.31" y2="320.45"/><line class="cls-8" x1="929.03" y1="320.13" x2="796.96" y2="91.38"/><line class="cls-8" x1="85.38" y1="1781.52" x2="33.5" y2="1781.53"/><line class="cls-8" x1="1772.76" y1="1781.53" x2="796.96" y2="3471.67"/><line class="cls-8" x1="1772.76" y1="1781.53" x2="2748.56" y2="3471.67"/></g></g></svg>